<svg version="1.1" viewBox="0 0 683.53 459.11" xmlns="http://www.w3.org/2000/svg"><defs><filter id="a" x="-.01076" y="-.01619" width="1.0215" height="1.0324" color-interpolation-filters="sRGB"><feGaussianBlur result="blur" stdDeviation="3 3"/></filter></defs><g transform="translate(-33.06 -14.164)"><g fill="#ffffff" fill-opacity=".3" filter="url(#a)"><g><path d="m285.39 35.656q0 .576-.072 1.512-.036.936-.072 1.62h.144q.216-.288.648-.828t.864-1.08q.468-.576.792-.936l6.156-6.516h3.708l-7.812 8.244 8.352 11.052h-3.816l-6.696-9-2.196 1.908v7.092h-3.132v-27.36h3.132zm19.26 13.068h-3.168v-19.296h3.168zm3.744-24.372v2.556h-10.692v-2.556zm11.664 4.716q3.456 0 5.22 1.692 1.764 1.656 1.764 5.4v12.564h-3.132v-12.348q0-4.644-4.32-4.644-3.204 0-4.428 1.8t-1.224 5.184v10.008h-3.168v-19.296h2.556l.468 2.628h.18q.936-1.512 2.592-2.232 1.656-.756 3.492-.756z"/><path d="m510 139.63h-14.112v-2.088l10.368-14.76h-9.756v-2.448h13.248v2.376l-10.224 14.472h10.476zm7.632-19.332q0 1.44-.18 2.7h.216q.936-1.476 2.52-2.232 1.62-.756 3.492-.756 3.528 0 5.292 1.692 1.764 1.656 1.764 5.364v12.564h-3.132v-12.348q0-4.644-4.32-4.644-3.24 0-4.464 1.836-1.188 1.8-1.188 5.184v9.972h-3.168v-27.36h3.168zm20.7-7.2q.72 0 1.26.504.576.468.576 1.512 0 1.008-.576 1.512-.54.504-1.26.504-.792 0-1.332-.504t-.54-1.512q0-1.044.54-1.512.54-.504 1.332-.504zm1.548 7.236v19.296h-3.168v-19.296zm13.428-.324q3.528 0 5.22 1.548t1.692 4.932v13.14h-2.304l-.612-2.736h-.144q-1.26 1.584-2.664 2.34-1.368.756-3.816.756-2.628 0-4.356-1.368-1.728-1.404-1.728-4.356 0-2.88 2.268-4.428 2.268-1.584 6.984-1.728l3.276-.108v-1.152q0-2.412-1.044-3.348t-2.952-.936q-1.512 0-2.88.468-1.368.432-2.556 1.008l-.972-2.376q1.26-.684 2.988-1.152 1.728-.504 3.6-.504zm.936 10.296q-3.6.144-5.004 1.152-1.368 1.008-1.368 2.844 0 1.62.972 2.376 1.008.756 2.556.756 2.448 0 4.068-1.332 1.62-1.368 1.62-4.176v-1.728zm15.084-3.744q0 .576-.072 1.512-.036.936-.072 1.62h.144q.216-.288.648-.828t.864-1.08q.468-.576.792-.936l6.156-6.516h3.708l-7.812 8.244 8.352 11.052h-3.816l-6.696-9-2.196 1.908v7.092h-3.132v-27.36h3.132z"/><path d="m214.22 210.88q1.908 0 3.42.72 1.548.72 2.628 2.196h.18l.432-2.556h2.52v19.62q0 4.14-2.124 6.228-2.088 2.088-6.516 2.088-4.248 0-6.948-1.224v-2.916q2.844 1.512 7.128 1.512 2.484 0 3.888-1.476 1.44-1.44 1.44-3.96v-.756q0-.432.036-1.224.036-.828.072-1.152h-.144q-1.944 2.916-5.976 2.916-3.744 0-5.868-2.628-2.088-2.628-2.088-7.344 0-4.608 2.088-7.308 2.124-2.736 5.832-2.736zm.432 2.664q-2.412 0-3.744 1.944-1.332 1.908-1.332 5.472t1.296 5.472q1.332 1.872 3.852 1.872 2.916 0 4.248-1.548 1.332-1.584 1.332-5.076v-.756q0-3.96-1.368-5.652-1.368-1.728-4.284-1.728zm18.036-2.34q0 1.44-.18 2.7h.216q.936-1.476 2.52-2.232 1.62-.756 3.492-.756 3.528 0 5.292 1.692 1.764 1.656 1.764 5.364v12.564h-3.132v-12.348q0-4.644-4.32-4.644-3.24 0-4.464 1.836-1.188 1.8-1.188 5.184v9.972h-3.168v-27.36h3.168zm26.532-.324q2.484 0 4.248 1.08 1.8 1.08 2.736 3.06.972 1.944.972 4.572v1.908h-13.212q.072 3.276 1.656 5.004 1.62 1.692 4.5 1.692 1.836 0 3.24-.324 1.44-.36 2.952-1.008v2.772q-1.476.648-2.916.936-1.44.324-3.42.324-2.736 0-4.86-1.116-2.088-1.116-3.276-3.312-1.152-2.232-1.152-5.436 0-3.168 1.044-5.436 1.08-2.268 2.988-3.492 1.944-1.224 4.5-1.224zm-.036 2.592q-2.268 0-3.6 1.476-1.296 1.44-1.548 4.032h9.828q-.036-2.448-1.152-3.96-1.116-1.548-3.528-1.548zm5.112-7.308v2.556h-10.692v-2.556zm17.064 4.716q3.456 0 5.22 1.692 1.764 1.656 1.764 5.4v12.564h-3.132v-12.348q0-4.644-4.32-4.644-3.204 0-4.428 1.8t-1.224 5.184v10.008h-3.168v-19.296h2.556l.468 2.628h.18q.936-1.512 2.592-2.232 1.656-.756 3.492-.756zm19.8 0q1.908 0 3.42.72 1.548.72 2.628 2.196h.18l.432-2.556h2.52v19.62q0 4.14-2.124 6.228-2.088 2.088-6.516 2.088-4.248 0-6.948-1.224v-2.916q2.844 1.512 7.128 1.512 2.484 0 3.888-1.476 1.44-1.44 1.44-3.96v-.756q0-.432.036-1.224.036-.828.072-1.152h-.144q-1.944 2.916-5.976 2.916-3.744 0-5.868-2.628-2.088-2.628-2.088-7.344 0-4.608 2.088-7.308 2.124-2.736 5.832-2.736zm.432 2.664q-2.412 0-3.744 1.944-1.332 1.908-1.332 5.472t1.296 5.472q1.332 1.872 3.852 1.872 2.916 0 4.248-1.548 1.332-1.584 1.332-5.076v-.756q0-3.96-1.368-5.652-1.368-1.728-4.284-1.728z"/><path d="m378.99 308.37q0 .576-.072 1.512-.036.936-.072 1.62h.144q.216-.288.648-.828t.864-1.08q.468-.576.792-.936l6.156-6.516h3.708l-7.812 8.244 8.352 11.052h-3.816l-6.696-9-2.196 1.908v7.092h-3.132v-27.36h3.132zm17.712-13.464q.72 0 1.26.504.576.468.576 1.512 0 1.008-.576 1.512-.54.504-1.26.504-.792 0-1.332-.504t-.54-1.512q0-1.044.54-1.512.54-.504 1.332-.504zm1.548 7.236v19.296h-3.168v-19.296zm13.572-.36q2.484 0 4.248 1.08 1.8 1.08 2.736 3.06.972 1.944.972 4.572v1.908h-13.212q.072 3.276 1.656 5.004 1.62 1.692 4.5 1.692 1.836 0 3.24-.324 1.44-.36 2.952-1.008v2.772q-1.476.648-2.916.936-1.44.324-3.42.324-2.736 0-4.86-1.116-2.088-1.116-3.276-3.312-1.152-2.232-1.152-5.436 0-3.168 1.044-5.436 1.08-2.268 2.988-3.492 1.944-1.224 4.5-1.224zm-.036 2.592q-2.268 0-3.6 1.476-1.296 1.44-1.548 4.032h9.828q-.036-2.448-1.152-3.96-1.116-1.548-3.528-1.548zm-1.116-10.512q.396.792.972 1.8.612.972 1.26 1.908.684.936 1.224 1.62v.432h-2.124q-.828-.648-1.872-1.656-1.044-1.044-1.944-2.052-.864-1.044-1.296-1.692v-.36zm30.132 8.28v19.296h-2.592l-.468-2.556h-.144q-.936 1.512-2.592 2.232-1.656.684-3.528.684-3.492 0-5.256-1.656-1.764-1.692-1.764-5.364v-12.636h3.204v12.42q0 4.608 4.284 4.608 3.204 0 4.428-1.8 1.26-1.8 1.26-5.184v-10.044z"/><path d="m513.24 393.04h3.384l4.176 10.98q.54 1.44.972 2.772.432 1.296.648 2.484h.144q.216-.9.684-2.34.468-1.476.972-2.952l3.924-10.944h3.42l-8.316 21.96q-1.008 2.736-2.628 4.356-1.584 1.62-4.392 1.62-.864 0-1.512-.108-.648-.072-1.116-.18v-2.52q.396.072.936.144.576.072 1.188.072 1.656 0 2.664-.936 1.044-.936 1.62-2.484l1.008-2.556zm38.16 9.612q0 4.788-2.448 7.416-2.412 2.628-6.552 2.628-2.556 0-4.572-1.152-1.98-1.188-3.132-3.42-1.152-2.268-1.152-5.472 0-4.788 2.412-7.38t6.552-2.592q2.628 0 4.608 1.188 2.016 1.152 3.132 3.384 1.152 2.196 1.152 5.4zm-14.58 0q0 3.42 1.332 5.436 1.368 1.98 4.32 1.98 2.916 0 4.284-1.98 1.368-2.016 1.368-5.436t-1.368-5.364-4.32-1.944-4.284 1.944-1.332 5.364zm4.752-17.892q.396.792.972 1.8.612.972 1.26 1.908.684.936 1.224 1.62v.432h-2.124q-.828-.648-1.872-1.656-1.044-1.044-1.944-2.052-.864-1.044-1.296-1.692v-.36zm22.284 7.92q2.484 0 4.248 1.08 1.8 1.08 2.736 3.06.972 1.944.972 4.572v1.908h-13.212q.072 3.276 1.656 5.004 1.62 1.692 4.5 1.692 1.836 0 3.24-.324 1.44-.36 2.952-1.008v2.772q-1.476.648-2.916.936-1.44.324-3.42.324-2.736 0-4.86-1.116-2.088-1.116-3.276-3.312-1.152-2.232-1.152-5.436 0-3.168 1.044-5.436 1.08-2.268 2.988-3.492 1.944-1.224 4.5-1.224zm-.036 2.592q-2.268 0-3.6 1.476-1.296 1.44-1.548 4.032h9.828q-.036-2.448-1.152-3.96-1.116-1.548-3.528-1.548z"/></g><g><path d="m397.86 74.158q3.456 0 5.22 1.692 1.764 1.656 1.764 5.4v12.564h-3.132v-12.348q0-4.644-4.32-4.644-3.204 0-4.428 1.8t-1.224 5.184v10.008h-3.168v-19.296h2.556l.468 2.628h.18q.936-1.512 2.592-2.232 1.656-.756 3.492-.756zm19.8 0q1.908 0 3.42.72 1.548.72 2.628 2.196h.18l.432-2.556h2.52v19.62q0 4.14-2.124 6.228-2.088 2.088-6.516 2.088-4.248 0-6.948-1.224v-2.916q2.844 1.512 7.128 1.512 2.484 0 3.888-1.476 1.44-1.44 1.44-3.96v-.756q0-.432.036-1.224.036-.828.072-1.152h-.144q-1.944 2.916-5.976 2.916-3.744 0-5.868-2.628-2.088-2.628-2.088-7.344 0-4.608 2.088-7.308 2.124-2.736 5.832-2.736zm.432 2.664q-2.412 0-3.744 1.944-1.332 1.908-1.332 5.472t1.296 5.472q1.332 1.872 3.852 1.872 2.916 0 4.248-1.548 1.332-1.584 1.332-5.076v-.756q0-3.96-1.368-5.652-1.368-1.728-4.284-1.728zm30.996-2.304v19.296h-2.592l-.468-2.556h-.144q-.936 1.512-2.592 2.232-1.656.684-3.528.684-3.492 0-5.256-1.656-1.764-1.692-1.764-5.364v-12.636h3.204v12.42q0 4.608 4.284 4.608 3.204 0 4.428-1.8 1.26-1.8 1.26-5.184v-10.044zm-2.736-5.076v2.556h-10.692v-2.556z"/><path d="m348.11 165.42h3.384l4.176 10.98q.54 1.44.972 2.772.432 1.296.648 2.484h.144q.216-.9.684-2.34.468-1.476.972-2.952l3.924-10.944h3.42l-8.316 21.96q-1.008 2.736-2.628 4.356-1.584 1.62-4.392 1.62-.864 0-1.512-.108-.648-.072-1.116-.18v-2.52q.396.072.936.144.576.072 1.188.072 1.656 0 2.664-.936 1.044-.936 1.62-2.484l1.008-2.556zm37.512 0v19.296h-2.592l-.468-2.556h-.144q-.936 1.512-2.592 2.232-1.656.684-3.528.684-3.492 0-5.256-1.656-1.764-1.692-1.764-5.364v-12.636h3.204v12.42q0 4.608 4.284 4.608 3.204 0 4.428-1.8 1.26-1.8 1.26-5.184v-10.044zm-2.736-7.92q-.432.648-1.332 1.692-.9 1.008-1.944 2.052-1.008 1.008-1.872 1.656h-2.088v-.432q.54-.684 1.152-1.62.648-.936 1.26-1.908.612-1.008 1.008-1.8h3.816zm18.144 7.56q3.456 0 5.22 1.692 1.764 1.656 1.764 5.4v12.564h-3.132v-12.348q0-4.644-4.32-4.644-3.204 0-4.428 1.8t-1.224 5.184v10.008h-3.168v-19.296h2.556l.468 2.628h.18q.936-1.512 2.592-2.232 1.656-.756 3.492-.756z"/><path d="m422.99 256.33h3.384l4.176 10.98q.54 1.44.972 2.772.432 1.296.648 2.484h.144q.216-.9.684-2.34.468-1.476.972-2.952l3.924-10.944h3.42l-8.316 21.96q-1.008 2.736-2.628 4.356-1.584 1.62-4.392 1.62-.864 0-1.512-.108-.648-.072-1.116-.18v-2.52q.396.072.936.144.576.072 1.188.072 1.656 0 2.664-.936 1.044-.936 1.62-2.484l1.008-2.556zm37.512 0v19.296h-2.592l-.468-2.556h-.144q-.936 1.512-2.592 2.232-1.656.684-3.528.684-3.492 0-5.256-1.656-1.764-1.692-1.764-5.364v-12.636h3.204v12.42q0 4.608 4.284 4.608 3.204 0 4.428-1.8 1.26-1.8 1.26-5.184v-10.044zm-8.964-8.28q.396.792.972 1.8.612.972 1.26 1.908.684.936 1.224 1.62v.432h-2.124q-.828-.648-1.872-1.656-1.044-1.044-1.944-2.052-.864-1.044-1.296-1.692v-.36zm24.372 7.92q3.456 0 5.22 1.692 1.764 1.656 1.764 5.4v12.564h-3.132v-12.348q0-4.644-4.32-4.644-3.204 0-4.428 1.8t-1.224 5.184v10.008h-3.168v-19.296h2.556l.468 2.628h.18q.936-1.512 2.592-2.232 1.656-.756 3.492-.756zm19.8 0q1.908 0 3.42.72 1.548.72 2.628 2.196h.18l.432-2.556h2.52v19.62q0 4.14-2.124 6.228-2.088 2.088-6.516 2.088-4.248 0-6.948-1.224v-2.916q2.844 1.512 7.128 1.512 2.484 0 3.888-1.476 1.44-1.44 1.44-3.96v-.756q0-.432.036-1.224.036-.828.072-1.152h-.144q-1.944 2.916-5.976 2.916-3.744 0-5.868-2.628-2.088-2.628-2.088-7.344 0-4.608 2.088-7.308 2.124-2.736 5.832-2.736zm.432 2.664q-2.412 0-3.744 1.944-1.332 1.908-1.332 5.472t1.296 5.472q1.332 1.872 3.852 1.872 2.916 0 4.248-1.548 1.332-1.584 1.332-5.076v-.756q0-3.96-1.368-5.652-1.368-1.728-4.284-1.728z"/><path d="m229.2 342.01q0-1.044.54-1.512.54-.504 1.332-.504.72 0 1.26.504.576.468.576 1.512 0 1.008-.576 1.512-.54.504-1.26.504-.792 0-1.332-.504t-.54-1.512zm-2.016 33.156q-.9 0-1.584-.144-.684-.108-1.188-.288v-2.556q.54.144 1.116.252t1.26.108q1.152 0 1.908-.648.756-.612.756-2.376v-22.284h3.168v22.176q0 2.7-1.296 4.212-1.296 1.548-4.14 1.548zm13.176-35.172q.72 0 1.26.504.576.468.576 1.512 0 1.008-.576 1.512-.54.504-1.26.504-.792 0-1.332-.504t-.54-1.512q0-1.044.54-1.512.54-.504 1.332-.504zm1.548 7.236v19.296h-3.168v-19.296zm22.896 9.612q0 4.788-2.448 7.416-2.412 2.628-6.552 2.628-2.556 0-4.572-1.152-1.98-1.188-3.132-3.42-1.152-2.268-1.152-5.472 0-4.788 2.412-7.38t6.552-2.592q2.628 0 4.608 1.188 2.016 1.152 3.132 3.384 1.152 2.196 1.152 5.4zm-14.58 0q0 3.42 1.332 5.436 1.368 1.98 4.32 1.98 2.916 0 4.284-1.98 1.368-2.016 1.368-5.436t-1.368-5.364-4.32-1.944-4.284 1.944-1.332 5.364zm10.98-14.688v2.556h-10.692v-2.556zm16.056 4.716q2.484 0 4.248 1.08 1.8 1.08 2.736 3.06.972 1.944.972 4.572v1.908h-13.212q.072 3.276 1.656 5.004 1.62 1.692 4.5 1.692 1.836 0 3.24-.324 1.44-.36 2.952-1.008v2.772q-1.476.648-2.916.936-1.44.324-3.42.324-2.736 0-4.86-1.116-2.088-1.116-3.276-3.312-1.152-2.232-1.152-5.436 0-3.168 1.044-5.436 1.08-2.268 2.988-3.492 1.944-1.224 4.5-1.224zm-.036 2.592q-2.268 0-3.6 1.476-1.296 1.44-1.548 4.032h9.828q-.036-2.448-1.152-3.96-1.116-1.548-3.528-1.548z"/><path d="m223.19 457.43h-14.112v-2.088l10.368-14.76h-9.756v-2.448h13.248v2.376l-10.224 14.472h10.476zm7.632-19.332q0 1.44-.18 2.7h.216q.936-1.476 2.52-2.232 1.62-.756 3.492-.756 3.528 0 5.292 1.692 1.764 1.656 1.764 5.364v12.564h-3.132v-12.348q0-4.644-4.32-4.644-3.24 0-4.464 1.836-1.188 1.8-1.188 5.184v9.972h-3.168v-27.36h3.168zm22.248 19.332h-3.168v-19.296h3.168zm3.744-24.372v2.556h-10.692v-2.556zm11.664 4.716q3.456 0 5.22 1.692 1.764 1.656 1.764 5.4v12.564h-3.132v-12.348q0-4.644-4.32-4.644-3.204 0-4.428 1.8t-1.224 5.184v10.008h-3.168v-19.296h2.556l.468 2.628h.18q.936-1.512 2.592-2.232 1.656-.756 3.492-.756zm19.8 0q1.908 0 3.42.72 1.548.72 2.628 2.196h.18l.432-2.556h2.52v19.62q0 4.14-2.124 6.228-2.088 2.088-6.516 2.088-4.248 0-6.948-1.224v-2.916q2.844 1.512 7.128 1.512 2.484 0 3.888-1.476 1.44-1.44 1.44-3.96v-.756q0-.432.036-1.224.036-.828.072-1.152h-.144q-1.944 2.916-5.976 2.916-3.744 0-5.868-2.628-2.088-2.628-2.088-7.344 0-4.608 2.088-7.308 2.124-2.736 5.832-2.736zm.432 2.664q-2.412 0-3.744 1.944-1.332 1.908-1.332 5.472t1.296 5.472q1.332 1.872 3.852 1.872 2.916 0 4.248-1.548 1.332-1.584 1.332-5.076v-.756q0-3.96-1.368-5.652-1.368-1.728-4.284-1.728z"/></g><g><path d="m108.91 80.977q0 .576-.072 1.512-.036.936-.072 1.62h.144q.216-.288.648-.828t.864-1.08q.468-.576.792-.936l6.156-6.516h3.708l-7.812 8.244 8.352 11.052h-3.816l-6.696-9-2.196 1.908v7.092h-3.132v-27.36h3.132zm32.22-6.228v19.296h-2.592l-.468-2.556h-.144q-.936 1.512-2.592 2.232-1.656.684-3.528.684-3.492 0-5.256-1.656-1.764-1.692-1.764-5.364v-12.636h3.204v12.42q0 4.608 4.284 4.608 3.204 0 4.428-1.8 1.26-1.8 1.26-5.184v-10.044zm22.896 9.612q0 4.788-2.448 7.416-2.412 2.628-6.552 2.628-2.556 0-4.572-1.152-1.98-1.188-3.132-3.42-1.152-2.268-1.152-5.472 0-4.788 2.412-7.38t6.552-2.592q2.628 0 4.608 1.188 2.016 1.152 3.132 3.384 1.152 2.196 1.152 5.4zm-14.58 0q0 3.42 1.332 5.436 1.368 1.98 4.32 1.98 2.916 0 4.284-1.98 1.368-2.016 1.368-5.436t-1.368-5.364-4.32-1.944-4.284 1.944-1.332 5.364zm10.98-14.688v2.556h-10.692v-2.556zm17.892 4.716q3.456 0 5.22 1.692 1.764 1.656 1.764 5.4v12.564h-3.132v-12.348q0-4.644-4.32-4.644-3.204 0-4.428 1.8t-1.224 5.184v10.008h-3.168v-19.296h2.556l.468 2.628h.18q.936-1.512 2.592-2.232 1.656-.756 3.492-.756zm19.8 0q1.908 0 3.42.72 1.548.72 2.628 2.196h.18l.432-2.556h2.52v19.62q0 4.14-2.124 6.228-2.088 2.088-6.516 2.088-4.248 0-6.948-1.224v-2.916q2.844 1.512 7.128 1.512 2.484 0 3.888-1.476 1.44-1.44 1.44-3.96v-.756q0-.432.036-1.224.036-.828.072-1.152h-.144q-1.944 2.916-5.976 2.916-3.744 0-5.868-2.628-2.088-2.628-2.088-7.344 0-4.608 2.088-7.308 2.124-2.736 5.832-2.736zm.432 2.664q-2.412 0-3.744 1.944-1.332 1.908-1.332 5.472t1.296 5.472q1.332 1.872 3.852 1.872 2.916 0 4.248-1.548 1.332-1.584 1.332-5.076v-.756q0-3.96-1.368-5.652-1.368-1.728-4.284-1.728z"/><path d="m128.75 202.95-7.308-19.296h3.384l4.104 11.376q.288.792.612 1.764t.576 1.872q.252.864.36 1.476h.144q.144-.612.396-1.512.288-.9.612-1.872.36-.972.612-1.728l4.104-11.376h3.384l-7.344 19.296zm30.168-19.296v19.296h-2.592l-.468-2.556h-.144q-.936 1.512-2.592 2.232-1.656.684-3.528.684-3.492 0-5.256-1.656-1.764-1.692-1.764-5.364v-12.636h3.204v12.42q0 4.608 4.284 4.608 3.204 0 4.428-1.8 1.26-1.8 1.26-5.184v-10.044zm9.252 6.228q0 .576-.072 1.512-.036.936-.072 1.62h.144q.216-.288.648-.828t.864-1.08q.468-.576.792-.936l6.156-6.516h3.708l-7.812 8.244 8.352 11.052h-3.816l-6.696-9-2.196 1.908v7.092h-3.132v-27.36h3.132z"/><path d="m49.548 292.2q3.456 0 5.22 1.692 1.764 1.656 1.764 5.4v12.564h-3.132v-12.348q0-4.644-4.32-4.644-3.204 0-4.428 1.8t-1.224 5.184v10.008h-3.168v-19.296h2.556l.468 2.628h.18q.936-1.512 2.592-2.232 1.656-.756 3.492-.756zm19.8 0q1.908 0 3.42.72 1.548.72 2.628 2.196h.18l.432-2.556h2.52v19.62q0 4.14-2.124 6.228-2.088 2.088-6.516 2.088-4.248 0-6.948-1.224v-2.916q2.844 1.512 7.128 1.512 2.484 0 3.888-1.476 1.44-1.44 1.44-3.96v-.756q0-.432.036-1.224.036-.828.072-1.152h-.144q-1.944 2.916-5.976 2.916-3.744 0-5.868-2.628-2.088-2.628-2.088-7.344 0-4.608 2.088-7.308 2.124-2.736 5.832-2.736zm.432 2.664q-2.412 0-3.744 1.944-1.332 1.908-1.332 5.472t1.296 5.472q1.332 1.872 3.852 1.872 2.916 0 4.248-1.548 1.332-1.584 1.332-5.076v-.756q0-3.96-1.368-5.652-1.368-1.728-4.284-1.728zm30.996-2.304v19.296h-2.592l-.468-2.556h-.144q-.936 1.512-2.592 2.232-1.656.684-3.528.684-3.492 0-5.256-1.656-1.764-1.692-1.764-5.364v-12.636h3.204v12.42q0 4.608 4.284 4.608 3.204 0 4.428-1.8 1.26-1.8 1.26-5.184v-10.044zm-2.736-5.076v2.556h-10.692v-2.556z"/><path d="m121.48 401.46h3.384l4.176 10.98q.54 1.44.972 2.772.432 1.296.648 2.484h.144q.216-.9.684-2.34.468-1.476.972-2.952l3.924-10.944h3.42l-8.316 21.96q-1.008 2.736-2.628 4.356-1.584 1.62-4.392 1.62-.864 0-1.512-.108-.648-.072-1.116-.18v-2.52q.396.072.936.144.576.072 1.188.072 1.656 0 2.664-.936 1.044-.936 1.62-2.484l1.008-2.556zm38.16 9.612q0 4.788-2.448 7.416-2.412 2.628-6.552 2.628-2.556 0-4.572-1.152-1.98-1.188-3.132-3.42-1.152-2.268-1.152-5.472 0-4.788 2.412-7.38t6.552-2.592q2.628 0 4.608 1.188 2.016 1.152 3.132 3.384 1.152 2.196 1.152 5.4zm-14.58 0q0 3.42 1.332 5.436 1.368 1.98 4.32 1.98 2.916 0 4.284-1.98 1.368-2.016 1.368-5.436t-1.368-5.364-4.32-1.944-4.284 1.944-1.332 5.364zm22.752-9.648q0 1.44-.18 2.7h.216q.936-1.476 2.52-2.232 1.62-.756 3.492-.756 3.528 0 5.292 1.692 1.764 1.656 1.764 5.364v12.564h-3.132v-12.348q0-4.644-4.32-4.644-3.24 0-4.464 1.836-1.188 1.8-1.188 5.184v9.972h-3.168v-27.36h3.168z"/></g><g><path d="m565.75 51.455h-14.112v-2.088l10.368-14.76h-9.756v-2.448h13.248v2.376l-10.224 14.472h10.476zm7.632-19.332q0 1.44-.18 2.7h.216q.936-1.476 2.52-2.232 1.62-.756 3.492-.756 3.528 0 5.292 1.692 1.764 1.656 1.764 5.364v12.564h-3.132v-12.348q0-4.644-4.32-4.644-3.24 0-4.464 1.836-1.188 1.8-1.188 5.184v9.972h-3.168v-27.36h3.168zm16.056.036h3.384l4.176 10.98q.54 1.44.972 2.772.432 1.296.648 2.484h.144q.216-.9.684-2.34.468-1.476.972-2.952l3.924-10.944h3.42l-8.316 21.96q-1.008 2.736-2.628 4.356-1.584 1.62-4.392 1.62-.864 0-1.512-.108-.648-.072-1.116-.18v-2.52q.396.072.936.144.576.072 1.188.072 1.656 0 2.664-.936 1.044-.936 1.62-2.484l1.008-2.556zm14.472-5.076v2.556h-10.692v-2.556z"/><path d="m663.09 160.72q-3.6 0-5.76-2.484-2.16-2.52-2.16-7.488t2.16-7.488q2.196-2.556 5.796-2.556 2.232 0 3.636.828 1.44.828 2.34 2.016h.216q-.036-.468-.144-1.368-.072-.936-.072-1.476v-7.704h3.168v27.36h-2.556l-.468-2.592h-.144q-.864 1.224-2.304 2.088t-3.708.864zm.504-2.628q3.06 0 4.284-1.656 1.26-1.692 1.26-5.076v-.576q0-3.6-1.188-5.508-1.188-1.944-4.392-1.944-2.556 0-3.852 2.052-1.26 2.016-1.26 5.436 0 3.456 1.26 5.364 1.296 1.908 3.888 1.908zm22.104-17.352q3.528 0 5.22 1.548t1.692 4.932v13.14h-2.304l-.612-2.736h-.144q-1.26 1.584-2.664 2.34-1.368.756-3.816.756-2.628 0-4.356-1.368-1.728-1.404-1.728-4.356 0-2.88 2.268-4.428 2.268-1.584 6.984-1.728l3.276-.108v-1.152q0-2.412-1.044-3.348t-2.952-.936q-1.512 0-2.88.468-1.368.432-2.556 1.008l-.972-2.376q1.26-.684 2.988-1.152 1.728-.504 3.6-.504zm.936 10.296q-3.6.144-5.004 1.152-1.368 1.008-1.368 2.844 0 1.62.972 2.376 1.008.756 2.556.756 2.448 0 4.068-1.332 1.62-1.368 1.62-4.176v-1.728zm4.14-17.892q-.432.648-1.332 1.692-.9 1.008-1.944 2.052-1.008 1.008-1.872 1.656h-2.088v-.432q.54-.684 1.152-1.62.648-.936 1.26-1.908.612-1.008 1.008-1.8h3.816zm9.432.684q.72 0 1.26.504.576.468.576 1.512 0 1.008-.576 1.512-.54.504-1.26.504-.792 0-1.332-.504t-.54-1.512q0-1.044.54-1.512.54-.504 1.332-.504zm1.548 7.236v19.296h-3.168v-19.296z"/><path d="m565.79 256.19q0 .576-.072 1.512-.036.936-.072 1.62h.144q.216-.288.648-.828t.864-1.08q.468-.576.792-.936l6.156-6.516h3.708l-7.812 8.244 8.352 11.052h-3.816l-6.696-9-2.196 1.908v7.092h-3.132v-27.36h3.132zm23.4-6.552q3.528 0 5.22 1.548t1.692 4.932v13.14h-2.304l-.612-2.736h-.144q-1.26 1.584-2.664 2.34-1.368.756-3.816.756-2.628 0-4.356-1.368-1.728-1.404-1.728-4.356 0-2.88 2.268-4.428 2.268-1.584 6.984-1.728l3.276-.108v-1.152q0-2.412-1.044-3.348t-2.952-.936q-1.512 0-2.88.468-1.368.432-2.556 1.008l-.972-2.376q1.26-.684 2.988-1.152 1.728-.504 3.6-.504zm.936 10.296q-3.6.144-5.004 1.152-1.368 1.008-1.368 2.844 0 1.62.972 2.376 1.008.756 2.556.756 2.448 0 4.068-1.332 1.62-1.368 1.62-4.176v-1.728zm15.084-3.744q0 .576-.072 1.512-.036.936-.072 1.62h.144q.216-.288.648-.828t.864-1.08q.468-.576.792-.936l6.156-6.516h3.708l-7.812 8.244 8.352 11.052h-3.816l-6.696-9-2.196 1.908v7.092h-3.132v-27.36h3.132z"/><path d="m649.34 358.51q3.276 0 4.896 1.692 1.62 1.656 1.62 5.4v12.564h-3.132v-12.42q0-4.572-3.924-4.572-2.808 0-4.032 1.62-1.188 1.62-1.188 4.716v10.656h-3.132v-12.42q0-4.572-3.96-4.572-2.916 0-4.032 1.8t-1.116 5.184v10.008h-3.168v-19.296h2.556l.468 2.628h.18q.9-1.512 2.412-2.232 1.548-.756 3.276-.756 4.536 0 5.904 3.24h.18q.972-1.656 2.628-2.448 1.692-.792 3.564-.792zm15.66 19.656h-3.168v-19.296h3.168zm3.744-27.216q-.432.648-1.332 1.692-.9 1.008-1.944 2.052-1.008 1.008-1.872 1.656h-2.088v-.432q.54-.684 1.152-1.62.648-.936 1.26-1.908.612-1.008 1.008-1.8h3.816zm11.664 7.56q3.456 0 5.22 1.692 1.764 1.656 1.764 5.4v12.564h-3.132v-12.348q0-4.644-4.32-4.644-3.204 0-4.428 1.8t-1.224 5.184v10.008h-3.168v-19.296h2.556l.468 2.628h.18q.936-1.512 2.592-2.232 1.656-.756 3.492-.756zm19.8 0q1.908 0 3.42.72 1.548.72 2.628 2.196h.18l.432-2.556h2.52v19.62q0 4.14-2.124 6.228-2.088 2.088-6.516 2.088-4.248 0-6.948-1.224v-2.916q2.844 1.512 7.128 1.512 2.484 0 3.888-1.476 1.44-1.44 1.44-3.96v-.756q0-.432.036-1.224.036-.828.072-1.152h-.144q-1.944 2.916-5.976 2.916-3.744 0-5.868-2.628-2.088-2.628-2.088-7.344 0-4.608 2.088-7.308 2.124-2.736 5.832-2.736zm.432 2.664q-2.412 0-3.744 1.944-1.332 1.908-1.332 5.472t1.296 5.472q1.332 1.872 3.852 1.872 2.916 0 4.248-1.548 1.332-1.584 1.332-5.076v-.756q0-3.96-1.368-5.652-1.368-1.728-4.284-1.728z"/></g></g></g></svg>
